<svg aria-hidden="true" style="position: absolute; width: 0; height: 0; overflow: hidden;" version="1.1" xmlns="http://www.w3.org/2000/svg" xmlns:xlink="http://www.w3.org/1999/xlink">
<defs>
<symbol id="icon-mobile" viewBox="0 0 32 32">
<path d="M1.5 32h14c0.276 0 0.5-0.224 0.5-0.5s-0.224-0.5-0.5-0.5h-14c-0.276 0-0.5-0.224-0.5-0.5v-29c0-0.276 0.224-0.5 0.5-0.5h21c0.276 0 0.5 0.224 0.5 0.5v5c0 0.276 0.224 0.5 0.5 0.5s0.5-0.224 0.5-0.5v-5c0-0.827-0.673-1.5-1.5-1.5h-21c-0.827 0-1.5 0.673-1.5 1.5v29c0 0.827 0.673 1.5 1.5 1.5zM18 10.5v20c0 0.827 0.673 1.5 1.5 1.5h11c0.827 0 1.5-0.673 1.5-1.5v-20c0-0.827-0.673-1.5-1.5-1.5h-11c-0.827 0-1.5 0.673-1.5 1.5zM31 10.5v20c0 0.276-0.224 0.5-0.5 0.5h-11c-0.276 0-0.5-0.224-0.5-0.5v-20c0-0.276 0.224-0.5 0.5-0.5h11c0.276 0 0.5 0.224 0.5 0.5zM11 28c0 0.552 0.448 1 1 1s1-0.448 1-1c0-0.552-0.448-1-1-1s-1 0.448-1 1zM24 28c0 0.552 0.448 1 1 1s1-0.448 1-1c0-0.552-0.448-1-1-1s-1 0.448-1 1z"></path>
</symbol>
<symbol id="icon-pencil" viewBox="0 0 32 32">
<path d="M0 31.479c0 0.276 0.224 0.5 0.5 0.5h31.111c0.067 0 0.132-0.013 0.193-0.039s0.116-0.063 0.162-0.109c0.001-0.001 0.002-0.001 0.003-0.002 0.003-0.003 0.003-0.009 0.007-0.012 0.051-0.055 0.084-0.122 0.107-0.195 0.007-0.023 0.010-0.045 0.014-0.069 0.004-0.025 0.015-0.047 0.015-0.073 0-0.040-0.014-0.075-0.023-0.112-0.003-0.014 0.003-0.028-0.002-0.042l-3.16-9.715c-0.024-0.075-0.066-0.144-0.122-0.199l-17.117-17.118c-0.018-0.028-0.031-0.058-0.055-0.083l-3.739-3.739c-0.607-0.607-1.595-0.607-2.203 0l-5.235 5.235c-0.294 0.294-0.456 0.685-0.456 1.101s0.162 0.808 0.456 1.102l3.656 3.656c0.018 0.027 0.030 0.058 0.054 0.082l17.090 17.205c0.059 0.060 0.131 0.103 0.212 0.127l6.713 2h-27.681c-0.276-0.001-0.5 0.223-0.5 0.499zM6.362 10.161l15.687 15.486-0.577 2.002-16.245-16.353 1.135-1.135zM22.816 25l-15.748-15.545 2.437-2.437 15.607 15.648v2.334h-2.296zM25.735 21.875l-15.523-15.564 1.039-1.039 16.211 16.211-1.727 0.392zM22.988 26h2.624c0.276 0 0.5-0.224 0.5-0.5v-2.685l2.007-0.456 2.723 8.37-8.488-2.529 0.634-2.2zM1 6.808c0-0.149 0.058-0.288 0.163-0.394l5.235-5.235c0.217-0.217 0.57-0.218 0.789 0l3.372 3.372-6.023 6.023-3.372-3.372c-0.106-0.105-0.164-0.245-0.164-0.394z"></path>
</symbol>
<symbol id="icon-linegraph" viewBox="0 0 42 32">
<path d="M39 0c-1.654 0-3 1.346-3 3 0 0.888 0.396 1.679 1.011 2.229l-8.8 14.031c-0.371-0.165-0.78-0.26-1.211-0.26-0.868 0-1.644 0.376-2.193 0.967l-9.073-5.745c0.168-0.374 0.266-0.786 0.266-1.222 0-1.654-1.346-3-3-3s-3 1.346-3 3c0 0.904 0.41 1.706 1.044 2.256l-6.895 10.975c-0.354-0.148-0.742-0.231-1.149-0.231-1.654 0-3 1.346-3 3s1.346 3 3 3 3-1.346 3-3c0-0.888-0.395-1.678-1.010-2.228l6.904-10.99c0.343 0.138 0.715 0.218 1.106 0.218 0.859 0 1.629-0.367 2.176-0.947l9.078 5.748c-0.161 0.368-0.254 0.772-0.254 1.199 0 1.654 1.346 3 3 3s3-1.346 3-3c0-0.863-0.371-1.636-0.957-2.184l8.81-14.046c0.354 0.147 0.741 0.23 1.147 0.23 1.654 0 3-1.346 3-3s-1.346-3-3-3zM5 29c0 1.103-0.897 2-2 2s-2-0.897-2-2 0.897-2 2-2 2 0.897 2 2zM13 15c-1.103 0-2-0.897-2-2s0.897-2 2-2 2 0.897 2 2-0.897 2-2 2zM27 24c-1.103 0-2-0.897-2-2s0.897-2 2-2 2 0.897 2 2-0.897 2-2 2zM39 5c-1.103 0-2-0.897-2-2s0.897-2 2-2 2 0.897 2 2-0.897 2-2 2z"></path>
</symbol>
<symbol id="icon-target" viewBox="0 0 42 32">
<path d="M41.779 13.090c-0.225-0.189-0.562-0.159-0.752 0.068l-2.367 2.84c-0.051-0.016-0.103-0.032-0.16 0.002h-1.391l1.77-2.158c0.189-0.227 0.158-0.563-0.068-0.752s-0.563-0.159-0.752 0.068l-2.34 2.842h-1.579l1.77-2.158c0.189-0.227 0.158-0.563-0.068-0.752s-0.562-0.159-0.752 0.068l-2.34 2.842h-0.752c-0.019-8.841-7.187-16-15.998-16-8.822 0-16 7.178-16 16s7.178 16 16 16c8.473 0 15.41-6.626 15.948-15h0.803l2.34 2.842c0.105 0.127 0.258 0.192 0.41 0.192 0.121 0 0.242-0.040 0.342-0.124 0.227-0.188 0.258-0.525 0.068-0.752l-1.771-2.158h1.579l2.34 2.842c0.105 0.127 0.258 0.192 0.41 0.192 0.121 0 0.242-0.040 0.342-0.124 0.227-0.188 0.258-0.525 0.068-0.752l-1.77-2.158h1.391c0.057 0.034 0.109 0.018 0.161 0.002l2.367 2.84c0.105 0.127 0.258 0.192 0.41 0.192 0.121 0 0.242-0.040 0.342-0.124 0.227-0.188 0.258-0.525 0.068-0.752l-2.215-2.658 2.215-2.658c0.189-0.227 0.158-0.564-0.069-0.752zM16 31c-8.271 0-15-6.729-15-15s6.729-15 15-15c8.26 0 14.979 6.71 14.998 15h-3c-0.018-6.635-5.392-12-11.998-12-6.617 0-12 5.383-12 12s5.383 12 12 12c6.268 0 11.421-4.832 11.948-11h3c-0.535 7.823-7.026 14-14.948 14zM23.998 16c-0.018-4.429-3.598-8-7.998-8-4.411 0-8 3.589-8 8s3.589 8 8 8c4.060 0 7.416-3.043 7.925-7h3.022c-0.523 5.616-5.231 10-10.947 10-6.065 0-11-4.935-11-11s4.935-11 11-11c6.054 0 10.98 4.916 10.998 11h-3zM19.997 16c-0.019-2.224-1.802-4-3.997-4-2.206 0-4 1.794-4 4s1.794 4 4 4c1.846 0 3.388-1.263 3.847-3h3.068c-0.503 3.404-3.408 6-6.915 6-3.859 0-7-3.141-7-7s3.141-7 7-7c3.848 0 6.98 3.122 6.998 7h-3.001zM16.5 17h2.305c-0.423 1.178-1.516 2-2.805 2-1.654 0-3-1.346-3-3s1.346-3 3-3c1.643 0 2.978 1.328 2.997 3h-2.497c-0.295-0.034-0.534 0.205-0.534 0.5s0.239 0.534 0.534 0.5z"></path>
</symbol>
</defs>
</svg>
